<?xml version="1.0" standalone="no"?>
<!DOCTYPE svg PUBLIC "-//W3C//DTD SVG 20010904//EN"
 "http://www.w3.org/TR/2001/REC-SVG-20010904/DTD/svg10.dtd">
<svg version="1.0" xmlns="http://www.w3.org/2000/svg"
 width="2159.000000pt" height="505.000000pt" viewBox="0 0 2159.000000 505.000000"
 preserveAspectRatio="xMidYMid meet">

<g transform="translate(0.000000,505.000000) scale(0.100000,-0.100000)"
fill="#000000" stroke="none">
<path d="M2420 5039 c-408 -33 -830 -183 -1198 -425 -156 -102 -238 -169 -363
-293 -329 -329 -560 -736 -673 -1186 -56 -223 -70 -341 -70 -610 0 -214 3
-269 22 -380 56 -326 139 -569 277 -817 261 -467 608 -806 1067 -1039 364
-184 683 -266 1079 -276 231 -6 365 4 559 43 464 92 923 329 1239 637 272 266
473 553 597 852 15 39 34 75 40 80 6 6 16 33 22 60 5 28 19 84 31 125 74 260
96 423 96 720 0 280 -13 390 -75 635 -99 397 -285 732 -604 1089 -229 256
-612 509 -971 641 -332 122 -712 173 -1075 144z m-520 -575 c782 -67 1739
-290 2615 -609 257 -93 271 -100 304 -158 46 -82 187 -416 178 -423 -1 -1
-121 -22 -267 -48 -981 -174 -1150 -215 -2364 -567 -205 -59 -243 -77 -220
-99 5 -5 110 -23 234 -40 1261 -174 1955 -379 2381 -701 87 -66 189 -157 189
-169 0 -22 -117 -267 -176 -370 -64 -111 -172 -269 -231 -339 l-29 -33 -39 63
c-154 250 -539 504 -1102 728 -532 212 -1286 412 -1910 506 l-112 17 -108 -57
c-424 -227 -694 -450 -810 -672 -16 -29 -30 -53 -33 -53 -8 0 -72 162 -115
290 -53 156 -71 236 -100 430 -14 96 -28 192 -31 213 -5 27 -3 41 8 50 401
329 960 573 1742 762 561 135 1336 248 1966 285 273 17 278 18 135 46 -938
181 -1871 272 -2494 244 -534 -25 -894 -103 -1111 -243 -30 -20 -56 -34 -58
-32 -6 6 93 197 160 310 138 235 289 414 511 610 l78 68 92 8 c127 10 506 2
717 -17z"/>
<path d="M8385 4214 c-161 -34 -281 -122 -341 -247 -70 -149 -69 -133 -69
-1092 0 -962 -2 -936 71 -1084 47 -94 106 -153 197 -197 102 -48 197 -66 352
-66 215 -1 360 45 461 146 61 61 97 128 127 234 21 76 22 91 25 922 2 593 0
869 -8 924 -35 241 -139 379 -333 442 -73 24 -101 27 -247 30 -120 3 -184 -1
-235 -12z m252 -434 c20 -38 14 -1770 -6 -1793 -17 -22 -49 -22 -73 0 -17 15
-18 56 -18 900 0 878 0 883 21 904 26 26 60 21 76 -11z"/>
<path d="M9755 4214 c-105 -22 -204 -74 -263 -139 -60 -65 -94 -131 -124 -240
-22 -79 -22 -88 -26 -890 -3 -817 0 -921 33 -1050 34 -133 119 -257 212 -312
178 -104 436 -77 609 63 30 24 56 44 58 44 3 0 8 -20 12 -45 4 -29 13 -49 25
-55 10 -6 74 -10 143 -10 100 0 128 3 140 16 14 14 16 88 16 663 0 490 -3 650
-12 659 -9 9 -98 12 -340 12 l-329 0 3 423 c3 459 3 461 57 455 46 -5 51 -32
51 -298 0 -178 3 -249 12 -258 9 -9 84 -12 274 -12 220 0 264 2 274 15 19 23
8 511 -14 588 -43 155 -121 254 -250 317 -44 22 -112 47 -151 55 -90 19 -317
18 -410 -1z m263 -1972 c-3 -255 -7 -272 -53 -272 -46 0 -50 17 -53 272 l-3
238 56 0 56 0 -3 -238z"/>
<path d="M19545 4215 c-147 -32 -253 -95 -326 -192 -85 -112 -108 -211 -109
-463 0 -208 13 -309 48 -383 35 -75 59 -106 291 -367 l182 -205 -250 -5 c-170
-3 -254 -9 -262 -17 -19 -19 -6 -591 15 -668 56 -200 186 -323 396 -370 110
-25 320 -23 425 4 218 57 347 185 390 386 18 84 21 454 5 585 -18 145 -45 188
-299 467 -122 133 -221 245 -221 248 0 3 114 5 254 5 211 0 256 2 266 15 9 11
11 81 8 282 -4 241 -7 275 -26 334 -27 80 -84 171 -142 223 -55 49 -166 102
-255 121 -87 18 -307 18 -390 0z m232 -435 c9 -18 13 -92 13 -264 l0 -239 -24
22 c-13 12 -36 45 -52 74 -29 52 -29 53 -29 228 0 137 3 180 14 193 20 24 63
17 78 -14z m-21 -1333 c29 -51 29 -54 32 -237 3 -203 -3 -233 -49 -238 -51 -6
-54 8 -57 302 l-3 271 24 -23 c13 -13 37 -46 53 -75z"/>
<path d="M5918 4170 c-17 -10 -18 -83 -18 -1290 0 -1255 0 -1279 19 -1290 26
-14 506 -14 532 0 18 10 19 28 19 591 l0 581 33 -19 c17 -10 41 -36 52 -58 19
-38 20 -66 26 -495 5 -383 8 -464 22 -513 9 -32 17 -60 17 -62 0 -2 7 -11 16
-19 13 -14 52 -16 268 -16 305 0 289 -7 261 113 -16 71 -19 146 -25 557 -7
498 -9 516 -55 595 -33 56 -71 90 -137 120 -32 15 -58 28 -58 30 0 2 21 14 47
26 95 46 170 153 192 273 14 75 14 455 1 526 -25 134 -103 234 -223 290 -121
57 -166 62 -587 66 -264 3 -391 1 -402 -6z m645 -414 c14 -24 17 -492 4 -539
-7 -26 -54 -57 -87 -57 -11 0 -15 621 -4 632 10 11 76 -16 87 -36z"/>
<path d="M7277 4162 c-16 -17 -17 -121 -17 -1290 0 -1247 0 -1271 19 -1282 26
-14 506 -14 532 0 19 11 19 35 19 1288 0 981 -3 1281 -12 1290 -9 9 -82 12
-268 12 -236 0 -258 -1 -273 -18z"/>
<path d="M10738 4170 c-17 -10 -18 -83 -18 -1290 0 -1255 0 -1279 19 -1290 26
-14 506 -14 532 0 18 10 19 27 19 585 0 633 -3 609 60 547 45 -46 50 -95 50
-533 0 -424 8 -523 49 -579 l18 -25 244 -3 c134 -1 254 0 267 3 27 7 29 42 5
130 -13 49 -17 147 -23 535 -7 498 -9 515 -55 595 -33 56 -71 90 -137 120 -32
15 -58 28 -58 30 0 2 21 13 46 26 93 44 164 141 190 255 13 60 15 117 12 316
-4 221 -7 249 -27 306 -45 123 -155 210 -322 253 -78 20 -114 22 -469 26 -262
2 -391 0 -402 -7z m648 -427 c17 -40 20 -457 4 -515 -11 -39 -25 -50 -72 -62
l-28 -6 0 313 c0 173 3 316 6 319 3 3 21 1 41 -5 26 -8 40 -20 49 -44z"/>
<path d="M12447 4168 c-14 -11 -39 -151 -127 -703 -60 -379 -151 -950 -202
-1268 -68 -427 -89 -583 -81 -595 9 -15 39 -17 244 -20 177 -2 239 1 252 10
14 11 22 65 48 333 16 176 32 326 34 333 5 13 161 18 181 4 7 -4 20 -131 35
-331 17 -233 27 -328 37 -337 20 -20 530 -20 557 0 18 13 18 21 -14 282 -18
148 -46 384 -62 524 -60 515 -179 1528 -193 1638 -7 62 -19 119 -26 127 -11
13 -62 15 -339 15 -246 0 -331 -3 -344 -12z m307 -1163 c9 -132 19 -257 22
-277 l6 -38 -61 0 c-44 0 -61 4 -61 13 0 11 58 570 61 587 0 3 4 -6 9 -20 4
-14 15 -133 24 -265z"/>
<path d="M13542 4168 c-9 -9 -12 -309 -12 -1290 0 -1253 0 -1277 19 -1288 26
-13 396 -13 422 0 18 10 19 29 19 710 0 385 3 700 8 700 4 0 15 -44 25 -97 10
-54 67 -366 128 -693 93 -498 114 -598 131 -612 18 -16 49 -18 318 -18 258 0
301 2 314 16 14 14 16 144 16 1283 0 1216 -1 1269 -18 1284 -16 15 -46 17
-218 17 -142 0 -203 -3 -212 -12 -9 -9 -12 -137 -12 -515 0 -281 -4 -503 -9
-503 -10 0 -3 -40 -96 525 -51 307 -83 476 -93 488 -14 16 -44 17 -367 17
-260 0 -354 -3 -363 -12z"/>
<path d="M15092 4168 c-9 -9 -12 -309 -12 -1290 0 -1253 0 -1277 19 -1288 26
-14 599 -13 716 1 151 18 296 78 362 150 43 47 91 141 114 222 l24 82 0 840
c0 775 -1 845 -18 905 -66 240 -194 347 -457 380 -123 15 -733 13 -748 -2z
m625 -414 c12 -8 25 -28 28 -46 3 -18 5 -399 3 -845 -3 -797 -3 -813 -23 -832
-11 -11 -33 -21 -50 -23 l-30 -3 -3 875 c-1 481 0 881 3 888 5 15 36 9 72 -14z"/>
<path d="M16476 4164 c-14 -14 -16 -144 -16 -1284 0 -1140 2 -1270 16 -1284
14 -14 72 -16 489 -16 417 0 475 2 489 16 13 13 16 46 16 208 0 149 -3 196
-13 205 -9 7 -88 12 -218 13 l-204 3 -3 398 -2 397 203 0 c145 0 206 3 215 12
8 8 12 67 12 198 0 131 -4 190 -12 198 -9 9 -70 12 -215 12 l-203 0 2 263 3
262 204 3 c130 1 209 6 218 13 10 9 13 55 13 195 0 171 -1 184 -19 194 -13 6
-185 10 -490 10 -414 0 -471 -2 -485 -16z"/>
<path d="M17608 4169 c-17 -9 -18 -81 -18 -1289 0 -1255 0 -1279 19 -1290 26
-13 406 -13 432 0 18 10 19 30 20 723 1 392 4 701 6 687 3 -14 63 -333 133
-710 102 -541 132 -687 146 -697 14 -10 89 -13 315 -13 257 0 300 2 313 16 14
14 16 144 16 1284 0 1140 -2 1270 -16 1284 -13 14 -47 16 -218 16 -144 0 -205
-3 -214 -12 -9 -9 -12 -143 -13 -537 0 -307 -4 -516 -9 -501 -5 14 -45 250
-90 525 -62 380 -85 503 -98 513 -20 15 -697 17 -724 1z"/>
<path d="M20502 4168 c-17 -17 -17 -2559 0 -2576 9 -9 131 -12 488 -12 449 0
478 1 493 18 15 16 17 46 17 208 0 135 -4 194 -12 202 -9 9 -72 12 -220 12
l-208 0 0 400 0 400 208 2 207 3 0 205 0 205 -207 3 -208 2 0 265 0 265 208 0
c148 0 211 3 220 12 8 8 12 66 12 195 0 170 -1 183 -19 193 -30 15 -963 14
-979 -2z"/>
<path d="M8325 1276 c-93 -43 -139 -117 -133 -216 7 -122 72 -180 266 -235
110 -30 128 -40 143 -77 35 -86 -131 -133 -210 -59 -16 15 -33 41 -37 57 -11
48 -22 54 -89 54 -83 0 -95 -5 -95 -44 0 -95 56 -183 145 -229 56 -29 67 -31
170 -31 124 0 181 17 244 77 72 68 93 186 50 275 -34 70 -85 97 -306 161 -79
23 -107 49 -96 89 20 77 202 63 219 -16 11 -54 16 -57 94 -57 86 0 96 9 86 78
-10 68 -60 135 -125 169 -49 26 -62 28 -165 28 -95 0 -118 -3 -161 -24z"/>
<path d="M18237 1286 c-89 -33 -146 -89 -194 -191 -26 -57 -28 -68 -27 -195 0
-155 10 -192 75 -277 74 -98 178 -140 325 -130 195 12 315 127 345 330 22 149
-18 294 -104 381 -77 77 -113 90 -257 93 -89 2 -136 -1 -163 -11z m234 -161
c77 -40 115 -129 107 -251 -9 -142 -91 -230 -205 -222 -112 9 -176 97 -177
242 -1 94 19 158 63 200 57 54 142 67 212 31z"/>
<path d="M5903 1271 c-19 -31 -18 -720 0 -745 12 -17 29 -18 208 -14 184 3
197 5 250 29 140 66 211 213 196 409 -13 169 -80 272 -207 320 -23 8 -105 14
-235 17 -194 5 -200 4 -212 -16z m394 -167 c44 -32 66 -88 71 -179 5 -96 -9
-154 -48 -198 -35 -41 -86 -57 -174 -57 l-66 0 0 231 0 231 94 -4 c76 -2 100
-7 123 -24z"/>
<path d="M7280 1271 c-15 -30 -14 -733 2 -749 16 -16 150 -16 166 0 16 16 17
719 2 749 -9 16 -22 19 -85 19 -63 0 -76 -3 -85 -19z"/>
<path d="M9462 1278 c-19 -19 -16 -134 4 -142 9 -3 58 -6 110 -6 l94 0 0 -305
0 -305 23 -5 c12 -3 52 -5 87 -3 l65 3 3 307 2 307 108 3 107 3 0 75 0 75
-295 3 c-222 2 -299 -1 -308 -10z"/>
<path d="M10763 1279 c-20 -20 -18 -742 1 -758 9 -7 42 -11 88 -9 l73 3 3 143
3 142 103 0 c80 0 106 -3 116 -15 7 -8 16 -64 20 -124 12 -153 11 -152 117
-149 102 4 118 16 90 70 -10 20 -20 76 -25 141 -7 86 -14 114 -31 137 l-21 29
30 43 c37 52 48 125 31 195 -16 62 -51 107 -104 135 -39 20 -60 22 -262 26
-171 3 -223 1 -232 -9z m380 -160 c30 -16 37 -28 37 -69 0 -66 -28 -80 -154
-80 l-96 0 0 80 0 80 96 0 c52 0 105 -5 117 -11z"/>
<path d="M12105 1277 c-3 -6 -4 -181 -3 -387 l3 -375 79 -3 c57 -2 82 1 87 10
14 22 11 742 -3 756 -17 17 -157 16 -163 -1z"/>
<path d="M13035 1279 c-3 -8 -4 -183 -3 -389 l3 -375 215 0 c183 0 222 3 262
18 57 22 123 91 137 143 25 88 2 187 -53 235 l-25 21 25 37 c44 68 41 176 -9
242 -11 16 -41 39 -66 51 -42 21 -63 23 -263 26 -177 3 -219 2 -223 -9z m383
-165 c15 -10 22 -25 22 -49 0 -52 -26 -65 -137 -65 l-93 0 0 65 0 65 93 0 c68
0 99 -4 115 -16z m12 -292 c31 -15 35 -22 38 -59 5 -72 -34 -93 -179 -93 l-79
0 0 85 0 85 93 0 c68 0 101 -5 127 -18z"/>
<path d="M14371 1276 c-9 -11 -11 -91 -9 -298 3 -316 7 -336 79 -407 59 -59
109 -75 234 -76 101 0 115 2 167 28 60 30 113 90 138 157 18 48 27 558 11 589
-10 18 -20 21 -84 21 -44 0 -78 -5 -85 -12 -9 -9 -12 -82 -12 -265 0 -281 -5
-310 -59 -337 -16 -9 -52 -16 -80 -16 -61 0 -105 33 -121 88 -5 21 -10 146
-10 283 0 216 -2 248 -16 253 -32 12 -141 6 -153 -8z"/>
<path d="M15745 1268 c-3 -13 -4 -187 -3 -388 l3 -365 73 -3 c46 -2 79 2 88 9
19 16 21 738 2 757 -7 7 -42 12 -85 12 -67 0 -73 -2 -78 -22z"/>
<path d="M16682 1278 c-9 -12 -12 -104 -10 -389 l3 -374 200 0 200 0 67 33
c77 38 109 72 152 162 30 62 31 70 31 195 l0 131 -40 79 c-43 87 -94 134 -163
156 -20 6 -125 13 -232 16 -166 5 -197 3 -208 -9z m368 -170 c67 -35 85 -78
85 -208 0 -96 -2 -109 -27 -152 -34 -56 -86 -78 -190 -78 l-68 0 0 230 0 230
78 0 c61 0 87 -5 122 -22z"/>
<path d="M19485 1279 c-3 -8 -4 -183 -3 -389 l3 -375 73 -3 c46 -2 79 2 88 9
11 9 14 42 14 145 l0 134 104 0 c68 0 107 -4 112 -11 4 -7 12 -65 19 -130 7
-65 18 -126 25 -134 10 -12 31 -15 99 -13 81 3 86 4 89 26 2 13 -3 38 -11 55
-8 18 -18 77 -21 132 -5 73 -12 109 -27 134 l-20 34 27 41 c30 44 42 124 30
189 -11 56 -61 123 -109 143 -57 24 -483 35 -492 13z m396 -168 c18 -14 24
-29 24 -61 0 -67 -25 -80 -146 -80 l-99 0 0 80 0 80 99 0 c82 0 103 -3 122
-19z"/>
<path d="M21013 1278 c-5 -7 -54 -134 -108 -283 -54 -148 -113 -312 -132 -364
-43 -119 -40 -123 71 -119 l81 3 31 90 31 90 110 3 c125 3 121 5 148 -78 36
-111 35 -110 124 -110 110 0 111 2 62 141 -67 194 -208 575 -225 608 -16 31
-17 31 -100 31 -55 0 -87 -4 -93 -12z m126 -341 l30 -87 -65 0 c-49 0 -64 3
-61 13 3 6 17 47 32 90 15 43 29 76 31 74 2 -2 17 -43 33 -90z"/>
</g>
</svg>
