<svg xmlns="http://www.w3.org/2000/svg" width="24" height="24" viewBox="0 0 24 24" fill="none" stroke="#F8F9FA" stroke-width="2" stroke-linecap="round" stroke-linejoin="round">
  <path d="M14 2H6a2 2 0 0 0-2 2v16a2 2 0 0 0 2 2h12a2 2 0 0 0 2-2V8z"></path>
  <polyline points="14 2 14 8 20 8"></polyline>
  <!-- PDF letters -->
  <polyline points="8 18 8 12 11 12"></polyline>
  <path d="M8 15h3"></path>
  <path d="M13 18v-6h2.5a1.5 1.5 0 0 1 0 3H13"></path>
  <path d="M18 18v-6h1a2 2 0 0 1 2 2v2a2 2 0 0 1-2 2h-1z"></path>
</svg>